<svg width="40" height="40" viewBox="0 0 40 40" fill="none" xmlns="http://www.w3.org/2000/svg">
<rect width="40" height="40" rx="20" fill="url(#paint0_linear)"/>
<path d="M20 30C25.5228 30 30 25.5228 30 20C30 14.4772 25.5228 10 20 10C14.4772 10 10 14.4772 10 20C10 25.5228 14.4772 30 20 30ZM20 25C17.2386 25 15 22.7614 15 20C15 17.2386 17.2386 15 20 15C22.7614 15 25 17.2386 25 20C25 22.7614 22.7614 25 20 25Z" fill="white"/>
<defs>
<linearGradient id="paint0_linear" x1="20" y1="0" x2="20" y2="40" gradientUnits="userSpaceOnUse">
<stop stop-color="#AB9AFF"/>
<stop offset="1" stop-color="#7B61FF"/>
</linearGradient>
</defs>
</svg>
